%TF.GenerationSoftware,Altium Limited,Altium Designer,26.5.1 (12)*%
G04 Layer_Physical_Order=1*
G04 Layer_Color=6711008*
G04 Board_Origin=46948819|29015748*
%FSLAX45Y45*%
%MOMM*%
%TF.SameCoordinates,F5B28851-A897-448A-83EB-F940FC8B259D*%
%TF.FilePolarity,Positive*%
%TF.FileFunction,Copper,L1,Top,Signal*%
%TF.Part,Single*%
G01*
G75*
%TA.AperFunction,SMDPad,CuDef*%
%ADD10R,0.60000X0.40000*%
%ADD11R,0.40000X0.60000*%
%ADD12R,0.65000X0.80000*%
%ADD13R,0.80000X0.65000*%
%ADD14R,0.85000X0.60000*%
%ADD15R,0.51000X0.40000*%
%ADD16R,1.55000X0.60000*%
%AMCUSTOMSHAPE17*
4,1,8,-0.15000,-0.25000,0.15000,-0.25000,0.15000,-0.05000,0.27500,-0.05000,0.27500,0.25000,-0.27500,0.25000,-0.27500,-0.05000,-0.15000,-0.05000,-0.15000,-0.25000,0.0*%
%ADD17CUSTOMSHAPE17*%

%AMCUSTOMSHAPE18*
4,1,8,-0.15000,0.25000,0.15000,0.25000,0.15000,0.05000,0.27500,0.05000,0.27500,-0.25000,-0.27500,-0.25000,-0.27500,0.05000,-0.15000,0.05000,-0.15000,0.25000,0.0*%
%ADD18CUSTOMSHAPE18*%

%ADD19R,0.80000X0.90000*%
%ADD20R,0.92000X0.98000*%
%ADD21R,1.78000X3.50000*%
%ADD22R,0.80000X0.80000*%
%ADD23R,0.50000X0.60000*%
%TA.AperFunction,Conductor*%
%ADD24C,0.20000*%
%ADD25C,0.50000*%
%ADD26C,0.80000*%
%TA.AperFunction,ComponentPad*%
%ADD27C,2.20000*%
%ADD28O,2.40000X1.70000*%
%ADD29R,2.40000X1.70000*%
%TA.AperFunction,ViaPad*%
%ADD30C,0.80000*%
G36*
X-325000Y1420000D02*
X-725500D01*
Y1520000D01*
X-325000D01*
Y1420000D01*
D02*
G37*
G36*
X1046734Y1721647D02*
X1060294Y1716031D01*
X1072499Y1707875D01*
X1082876Y1697498D01*
X1091031Y1685293D01*
X1096648Y1671733D01*
X1099512Y1657338D01*
Y1649999D01*
Y100000D01*
Y92661D01*
X1096648Y78266D01*
X1091031Y64706D01*
X1082876Y52501D01*
X1072499Y42124D01*
X1060294Y33968D01*
X1046734Y28352D01*
X1032339Y25488D01*
X718767D01*
X699441Y33678D01*
X698782Y43832D01*
X698920Y57587D01*
X702037Y59124D01*
X705852Y61673D01*
X709302Y64698D01*
X729802Y85198D01*
X732827Y88648D01*
X735376Y92463D01*
X737405Y96577D01*
X738880Y100922D01*
X739775Y105422D01*
X740075Y110000D01*
Y135471D01*
X749802Y145198D01*
X752827Y148647D01*
X755376Y152462D01*
X757405Y156577D01*
X758880Y160922D01*
X759775Y165422D01*
X760075Y170000D01*
Y214819D01*
X784999Y215000D01*
X805000Y202859D01*
X805000Y190000D01*
Y162500D01*
X870000D01*
Y150000D01*
X882500D01*
Y92500D01*
X1045000D01*
Y207500D01*
X1065000Y215000D01*
Y345000D01*
X940000D01*
X935000Y345000D01*
X915000D01*
X910000Y345000D01*
X785000D01*
Y315075D01*
X755000D01*
X750422Y314775D01*
X745922Y313880D01*
X741577Y312405D01*
X737463Y310376D01*
X733648Y307827D01*
X730198Y304802D01*
X722500Y297103D01*
X697500Y307459D01*
Y390500D01*
X697500Y415500D01*
X697500Y423500D01*
Y458000D01*
X492500D01*
Y423500D01*
X492500Y398500D01*
X472439Y378575D01*
X378500D01*
X373922Y378275D01*
X369422Y377380D01*
X365077Y375905D01*
X360962Y373876D01*
X357147Y371327D01*
X353698Y368302D01*
X300471Y315075D01*
X157500D01*
Y390500D01*
X157500Y398499D01*
X157500D01*
Y415501D01*
X157500D01*
Y474098D01*
X157579Y475500D01*
Y502257D01*
X214128Y558806D01*
X217870Y562994D01*
X221120Y567573D01*
X223836Y572489D01*
X225985Y577677D01*
X227540Y583074D01*
X228481Y588610D01*
X228796Y594217D01*
Y606000D01*
X265000D01*
X265000Y605000D01*
X435001D01*
Y660000D01*
X447501D01*
Y672500D01*
X515000D01*
Y690000D01*
X515000Y714999D01*
X515001D01*
Y715001D01*
X515000D01*
Y757500D01*
X447501D01*
Y770000D01*
X435001D01*
Y825000D01*
X265000D01*
Y779000D01*
X265000Y754000D01*
X132000D01*
X123001Y754000D01*
Y754000D01*
X107000D01*
Y754000D01*
X-34999D01*
X-39034Y772500D01*
X-97500D01*
Y797500D01*
X-40000D01*
Y850000D01*
X-49500D01*
Y877499D01*
X-100000D01*
Y902499D01*
X-49500D01*
Y904925D01*
X-20500D01*
Y895000D01*
X80500D01*
Y960916D01*
X80503Y961467D01*
X105500Y968548D01*
X106862Y966336D01*
X107090Y965877D01*
X107060Y966015D01*
X107058Y966018D01*
X107060Y966015D01*
X107925Y962039D01*
X109110Y956592D01*
X111827Y947340D01*
X115197Y938305D01*
X119203Y929533D01*
X123824Y921070D01*
X129038Y912957D01*
X134816Y905237D01*
X141131Y897950D01*
X147950Y891131D01*
X155238Y884816D01*
X162957Y879037D01*
X171070Y873824D01*
X179533Y869202D01*
X188305Y865197D01*
X197340Y861827D01*
X206592Y859110D01*
X216015Y857060D01*
X225560Y855688D01*
X227500Y855549D01*
Y989999D01*
Y1124451D01*
X225560Y1124312D01*
X216015Y1122940D01*
X206592Y1120890D01*
X197340Y1118173D01*
X188305Y1114803D01*
X179533Y1110797D01*
X171070Y1106176D01*
X162957Y1100962D01*
X155238Y1095183D01*
X147950Y1088869D01*
X141131Y1082050D01*
X134816Y1074762D01*
X129038Y1067043D01*
X123824Y1058930D01*
X119203Y1050467D01*
X115197Y1041695D01*
X111827Y1032660D01*
X109110Y1023407D01*
X107060Y1013985D01*
X105688Y1004440D01*
X105000Y994821D01*
X100232Y990015D01*
X94554Y986356D01*
X80620Y985009D01*
X80505Y985003D01*
X80135Y985001D01*
X58690Y985000D01*
X-20500D01*
Y975075D01*
X-49500D01*
Y1035000D01*
X-64925D01*
Y1041409D01*
X-65225Y1045987D01*
X-66120Y1050487D01*
X-67595Y1054832D01*
X-69624Y1058947D01*
X-72173Y1062762D01*
X-75198Y1066211D01*
X-88987Y1080000D01*
X-78632Y1105000D01*
X-15000D01*
Y1158598D01*
X-14921Y1160000D01*
Y1201151D01*
X-13669Y1202682D01*
X-78Y1212279D01*
X24921Y1199698D01*
Y1160000D01*
X25000Y1158598D01*
Y1105000D01*
X125000D01*
Y1158598D01*
X125079Y1160000D01*
Y1224257D01*
X186735Y1285913D01*
X188305Y1285197D01*
X197340Y1281826D01*
X206592Y1279110D01*
X216015Y1277060D01*
X225560Y1275688D01*
X235179Y1275000D01*
X244821D01*
X254440Y1275688D01*
X263985Y1277060D01*
X273408Y1279110D01*
X282660Y1281826D01*
X291695Y1285197D01*
X300467Y1289202D01*
X308930Y1293824D01*
X317043Y1299037D01*
X324762Y1304816D01*
X332050Y1311131D01*
X338869Y1317950D01*
X339922Y1319164D01*
X362053Y1312293D01*
X364922Y1310092D01*
Y1260819D01*
X363650Y1257749D01*
X362732Y1253923D01*
X362423Y1250000D01*
Y1220000D01*
X362732Y1216077D01*
X363650Y1212251D01*
X365156Y1208615D01*
X367212Y1205260D01*
X369768Y1202268D01*
X366887Y1194976D01*
X364798Y1191567D01*
X363268Y1187873D01*
X362335Y1183986D01*
X362021Y1180000D01*
Y1167700D01*
X415000D01*
X467978D01*
Y1180000D01*
X467665Y1183986D01*
X466731Y1187873D01*
X465201Y1191567D01*
X463112Y1194976D01*
X460232Y1202268D01*
X462787Y1205260D01*
X464844Y1208615D01*
X466350Y1212251D01*
X467268Y1216077D01*
X467577Y1220000D01*
Y1250000D01*
X467268Y1253923D01*
X466350Y1257749D01*
X465079Y1260817D01*
Y1360000D01*
X464764Y1365607D01*
X463823Y1371143D01*
X462269Y1376540D01*
X460119Y1381728D01*
X457403Y1386643D01*
X454153Y1391223D01*
X450411Y1395411D01*
X400411Y1445411D01*
X396224Y1449153D01*
X391644Y1452402D01*
X386729Y1455119D01*
X381540Y1457268D01*
X376144Y1458823D01*
X370607Y1459763D01*
X365415Y1460055D01*
X364803Y1461695D01*
X360797Y1470466D01*
X356176Y1478930D01*
X350962Y1487042D01*
X345184Y1494762D01*
X338869Y1502050D01*
X332050Y1508868D01*
X324762Y1515183D01*
X317043Y1520962D01*
X308930Y1526176D01*
X300467Y1530797D01*
X291695Y1534803D01*
X282660Y1538173D01*
X273408Y1540890D01*
X263985Y1542940D01*
X254440Y1544312D01*
X244821Y1545000D01*
X235179D01*
X225560Y1544312D01*
X216015Y1542940D01*
X206592Y1540890D01*
X197340Y1538173D01*
X188305Y1534803D01*
X179533Y1530797D01*
X171070Y1526176D01*
X162957Y1520962D01*
X155238Y1515183D01*
X147950Y1508868D01*
X141131Y1502050D01*
X134816Y1494762D01*
X129038Y1487042D01*
X123824Y1478930D01*
X119203Y1470466D01*
X115197Y1461695D01*
X111827Y1452660D01*
X109110Y1443407D01*
X107060Y1433985D01*
X105688Y1424440D01*
X105000Y1414821D01*
Y1405178D01*
X105688Y1395560D01*
X107060Y1386015D01*
X109110Y1376592D01*
X111827Y1367340D01*
X115197Y1358305D01*
X115914Y1356735D01*
X39589Y1280411D01*
X35847Y1276223D01*
X32597Y1271643D01*
X29881Y1266728D01*
X27732Y1261540D01*
X26177Y1256143D01*
X25236Y1250607D01*
X500Y1252474D01*
Y1620000D01*
X-227500D01*
Y1237500D01*
X-295089D01*
X-295225Y1239578D01*
X-296120Y1244079D01*
X-297595Y1248423D01*
X-299624Y1252538D01*
X-302173Y1256353D01*
X-305198Y1259802D01*
X-340198Y1294802D01*
X-343647Y1297827D01*
X-347462Y1300376D01*
X-351577Y1302405D01*
X-355922Y1303880D01*
X-360422Y1304775D01*
X-365000Y1305075D01*
X-420262D01*
X-422729Y1308767D01*
X-426780Y1313704D01*
X-431296Y1318220D01*
X-436233Y1322271D01*
X-441543Y1325820D01*
X-447175Y1328830D01*
X-453076Y1331274D01*
X-459187Y1333128D01*
X-465451Y1334374D01*
X-471807Y1335000D01*
X-478193D01*
X-484549Y1334374D01*
X-490813Y1333128D01*
X-496924Y1331274D01*
X-497500Y1331036D01*
X-514182Y1338231D01*
X-520350Y1343336D01*
X-522500Y1346503D01*
Y1394923D01*
X-325000D01*
X-321077Y1395232D01*
X-317251Y1396150D01*
X-313615Y1397656D01*
X-310260Y1399712D01*
X-307268Y1402268D01*
X-304712Y1405260D01*
X-302656Y1408615D01*
X-301150Y1412251D01*
X-300232Y1416077D01*
X-299923Y1420000D01*
Y1520000D01*
X-300232Y1523923D01*
X-301150Y1527749D01*
X-302656Y1531385D01*
X-304712Y1534740D01*
X-307268Y1537732D01*
X-310260Y1540288D01*
X-313615Y1542344D01*
X-317251Y1543850D01*
X-321077Y1544768D01*
X-325000Y1545077D01*
X-522500D01*
Y1620000D01*
X-750500D01*
Y1520984D01*
X-750577Y1520000D01*
Y1420000D01*
X-750500Y1419016D01*
Y1302059D01*
X-773733Y1286303D01*
X-775500Y1285995D01*
X-786688Y1293773D01*
X-788295Y1298128D01*
X-791914Y1305977D01*
X-796137Y1313519D01*
X-800939Y1320706D01*
X-806291Y1327494D01*
X-812158Y1333842D01*
X-818506Y1339709D01*
X-825294Y1345060D01*
X-832481Y1349863D01*
X-840022Y1354086D01*
X-847872Y1357705D01*
X-855982Y1360697D01*
X-864301Y1363043D01*
X-872779Y1364729D01*
X-881363Y1365745D01*
X-890000Y1366085D01*
X-960000D01*
X-968637Y1365745D01*
X-977221Y1364729D01*
X-985699Y1363043D01*
X-994018Y1360697D01*
X-1002128Y1357705D01*
X-1009977Y1354086D01*
X-1017519Y1349863D01*
X-1024706Y1345060D01*
X-1031494Y1339709D01*
X-1037842Y1333842D01*
X-1043709Y1327494D01*
X-1049060Y1320706D01*
X-1053863Y1313519D01*
X-1058086Y1305977D01*
X-1061705Y1298128D01*
X-1064697Y1290018D01*
X-1067043Y1281699D01*
X-1068729Y1273221D01*
X-1069745Y1264637D01*
X-1070085Y1256000D01*
X-1069745Y1247363D01*
X-1068729Y1238779D01*
X-1067043Y1230301D01*
X-1064697Y1221982D01*
X-1061705Y1213872D01*
X-1058086Y1206023D01*
X-1053863Y1198481D01*
X-1049060Y1191294D01*
X-1043709Y1184506D01*
X-1037842Y1178158D01*
X-1031494Y1172291D01*
X-1024706Y1166940D01*
X-1017519Y1162137D01*
X-1009977Y1157914D01*
X-1002128Y1154295D01*
X-994018Y1151303D01*
X-985699Y1148957D01*
X-977221Y1147271D01*
X-968637Y1146255D01*
X-960000Y1145915D01*
X-890000D01*
X-881363Y1146255D01*
X-872779Y1147271D01*
X-864301Y1148957D01*
X-855982Y1151303D01*
X-847872Y1154295D01*
X-840022Y1157914D01*
X-832481Y1162137D01*
X-825294Y1166940D01*
X-818506Y1172291D01*
X-812158Y1178158D01*
X-812139Y1178180D01*
X-788659Y1182298D01*
X-779791Y1181188D01*
X-734801Y1136198D01*
X-731352Y1133173D01*
X-727537Y1130624D01*
X-723422Y1128595D01*
X-719078Y1127120D01*
X-714578Y1126225D01*
X-710000Y1125925D01*
X-706700D01*
Y1103500D01*
X-666700D01*
Y1006000D01*
X-564200D01*
Y1061000D01*
X-551700D01*
Y1073500D01*
X-506700D01*
Y1101000D01*
X-503875Y1102170D01*
X-501387Y1103500D01*
X-466700D01*
Y1205503D01*
X-465451Y1205626D01*
X-459187Y1206872D01*
X-453076Y1208726D01*
X-447175Y1211170D01*
X-441543Y1214180D01*
X-436233Y1217729D01*
X-431296Y1221780D01*
X-426780Y1226296D01*
X-422729Y1231233D01*
X-420262Y1234925D01*
X-395000D01*
Y1122500D01*
X-395000D01*
Y1092499D01*
X-330000D01*
Y1067500D01*
X-395000D01*
Y1037500D01*
X-395000D01*
Y953876D01*
X-417776Y946316D01*
X-420000Y946464D01*
X-423480Y950704D01*
X-427996Y955220D01*
X-432933Y959271D01*
X-438243Y962820D01*
X-443875Y965830D01*
X-449776Y968274D01*
X-455887Y970128D01*
X-462151Y971374D01*
X-468507Y972000D01*
X-474893D01*
X-481249Y971374D01*
X-487513Y970128D01*
X-493624Y968274D01*
X-499525Y965830D01*
X-502013Y964500D01*
X-706699D01*
Y964500D01*
X-714617Y961221D01*
X-780198Y1026802D01*
X-783527Y1029722D01*
X-785303Y1036018D01*
X-788295Y1044128D01*
X-791914Y1051977D01*
X-796137Y1059519D01*
X-800939Y1066706D01*
X-806291Y1073494D01*
X-812158Y1079842D01*
X-818506Y1085709D01*
X-825294Y1091060D01*
X-832481Y1095863D01*
X-840022Y1100086D01*
X-847872Y1103705D01*
X-855982Y1106697D01*
X-864301Y1109043D01*
X-872779Y1110729D01*
X-881363Y1111745D01*
X-890000Y1112085D01*
X-960000D01*
X-968637Y1111745D01*
X-977221Y1110729D01*
X-985699Y1109043D01*
X-994018Y1106697D01*
X-1002128Y1103705D01*
X-1009977Y1100086D01*
X-1017519Y1095863D01*
X-1024706Y1091060D01*
X-1031494Y1085709D01*
X-1037842Y1079842D01*
X-1043709Y1073494D01*
X-1049060Y1066706D01*
X-1053863Y1059519D01*
X-1058086Y1051977D01*
X-1061705Y1044128D01*
X-1064697Y1036018D01*
X-1067043Y1027699D01*
X-1068729Y1019221D01*
X-1069745Y1010637D01*
X-1070085Y1002000D01*
X-1069745Y993363D01*
X-1068729Y984779D01*
X-1067043Y976301D01*
X-1064697Y967982D01*
X-1061705Y959872D01*
X-1058086Y952023D01*
X-1053863Y944481D01*
X-1049060Y937294D01*
X-1043709Y930506D01*
X-1037842Y924158D01*
X-1031494Y918291D01*
X-1024706Y912940D01*
X-1017519Y908137D01*
X-1009977Y903914D01*
X-1002128Y900295D01*
X-994018Y897303D01*
X-985699Y894957D01*
X-977221Y893271D01*
X-968637Y892255D01*
X-960000Y891915D01*
X-890000D01*
X-881363Y892255D01*
X-872779Y893271D01*
X-864301Y894957D01*
X-855982Y897303D01*
X-847872Y900295D01*
X-840022Y903914D01*
X-832481Y908137D01*
X-825294Y912940D01*
X-818506Y918291D01*
X-812158Y924158D01*
X-812139Y924180D01*
X-788659Y928298D01*
X-779791Y927188D01*
X-734801Y882198D01*
X-731352Y879173D01*
X-727537Y876624D01*
X-723422Y874595D01*
X-719078Y873120D01*
X-714578Y872225D01*
X-710000Y871925D01*
X-706700D01*
Y849500D01*
X-666700D01*
Y752000D01*
X-564200D01*
Y806999D01*
X-551700D01*
Y819499D01*
X-506700D01*
Y824082D01*
X-503390Y829561D01*
X-500011Y832607D01*
X-481700Y842716D01*
X-481249Y842626D01*
X-474893Y842000D01*
X-468507D01*
X-462151Y842626D01*
X-455887Y843872D01*
X-449776Y845726D01*
X-443875Y848170D01*
X-438243Y851180D01*
X-432933Y854729D01*
X-427996Y858780D01*
X-423480Y863296D01*
X-420000Y867536D01*
X-417776Y867684D01*
X-395000Y860125D01*
Y822500D01*
X-390000D01*
Y735001D01*
X-390000D01*
Y724999D01*
X-390000D01*
Y635000D01*
X-390000D01*
X-385435Y623741D01*
X-402511Y600077D01*
X-505000D01*
X-508923Y599768D01*
X-512749Y598850D01*
X-516385Y597344D01*
X-519740Y595288D01*
X-522732Y592732D01*
X-525288Y589740D01*
X-527344Y586385D01*
X-528850Y582749D01*
X-529768Y578923D01*
X-530077Y575000D01*
Y485000D01*
X-529802Y481500D01*
X-529785Y481045D01*
X-539286Y462447D01*
X-545644Y456500D01*
X-640000D01*
Y457501D01*
X-695000D01*
Y470001D01*
X-707499D01*
Y515000D01*
X-750000D01*
Y478330D01*
X-764580Y467372D01*
X-775000Y465742D01*
X-781858Y473823D01*
X-781270Y476779D01*
X-780254Y485363D01*
X-779915Y494000D01*
X-780254Y502637D01*
X-781270Y511221D01*
X-782957Y519699D01*
X-785303Y528018D01*
X-788295Y536128D01*
X-791914Y543977D01*
X-796137Y551519D01*
X-800939Y558706D01*
X-806291Y565494D01*
X-812158Y571842D01*
X-818506Y577709D01*
X-825294Y583060D01*
X-832481Y587863D01*
X-840022Y592086D01*
X-847872Y595705D01*
X-855982Y598697D01*
X-864301Y601043D01*
X-872779Y602729D01*
X-881363Y603745D01*
X-890000Y604085D01*
X-960000D01*
X-968637Y603745D01*
X-977221Y602729D01*
X-985699Y601043D01*
X-994018Y598697D01*
X-1002128Y595705D01*
X-1009977Y592086D01*
X-1017519Y587863D01*
X-1024706Y583060D01*
X-1031494Y577709D01*
X-1037842Y571842D01*
X-1043709Y565494D01*
X-1049060Y558706D01*
X-1053863Y551519D01*
X-1058086Y543977D01*
X-1061705Y536128D01*
X-1064697Y528018D01*
X-1067043Y519699D01*
X-1068729Y511221D01*
X-1069745Y502637D01*
X-1070085Y494000D01*
X-1069745Y485363D01*
X-1068729Y476779D01*
X-1067043Y468301D01*
X-1064697Y459982D01*
X-1061705Y451872D01*
X-1058086Y444023D01*
X-1053863Y436481D01*
X-1049060Y429294D01*
X-1043709Y422506D01*
X-1037842Y416158D01*
X-1031494Y410291D01*
X-1024706Y404940D01*
X-1017519Y400137D01*
X-1009977Y395914D01*
X-1002128Y392295D01*
X-994018Y389303D01*
X-985699Y386957D01*
X-977221Y385271D01*
X-968637Y384255D01*
X-960000Y383915D01*
X-890000D01*
X-881363Y384255D01*
X-872779Y385271D01*
X-864301Y386957D01*
X-855982Y389303D01*
X-847872Y392295D01*
X-840022Y395914D01*
X-832481Y400137D01*
X-827841Y403238D01*
X-799603Y375000D01*
X-799826Y370088D01*
X-802317Y360095D01*
X-808663Y350000D01*
X-1070000D01*
Y130000D01*
X-864604D01*
X-854802Y120198D01*
X-851352Y117173D01*
X-847538Y114624D01*
X-843422Y112595D01*
X-839078Y111120D01*
X-834578Y110225D01*
X-830000Y109925D01*
X-750000D01*
Y100075D01*
X-656700D01*
Y87500D01*
X-541700D01*
X-540530Y84675D01*
X-537519Y79043D01*
X-533971Y73733D01*
X-529920Y68796D01*
X-525404Y64280D01*
X-520467Y60228D01*
X-515157Y56680D01*
X-509525Y53670D01*
X-503624Y51226D01*
X-501194Y50488D01*
X-504902Y25488D01*
X-1032339D01*
X-1046735Y28352D01*
X-1060295Y33968D01*
X-1072500Y42124D01*
X-1082877Y52501D01*
X-1091032Y64706D01*
X-1096649Y78266D01*
X-1099512Y92661D01*
Y100000D01*
X-1099512Y1649999D01*
Y1657338D01*
X-1096648Y1671733D01*
X-1091032Y1685293D01*
X-1082876Y1697498D01*
X-1072499Y1707875D01*
X-1060294Y1716031D01*
X-1046734Y1721647D01*
X-1032339Y1724511D01*
X1032338D01*
X1046734Y1721647D01*
D02*
G37*
G36*
X-225000Y485000D02*
X-505000D01*
Y575000D01*
X-225000D01*
Y485000D01*
D02*
G37*
G36*
X-433631Y272985D02*
X-429777Y260017D01*
X-430820Y258457D01*
X-433830Y252825D01*
X-436274Y246924D01*
X-438128Y240813D01*
X-439374Y234549D01*
X-440000Y228193D01*
Y221807D01*
X-454982Y206290D01*
X-460929Y202799D01*
X-461996Y202500D01*
X-640000D01*
Y202576D01*
X-695000D01*
Y227575D01*
X-640000D01*
Y260075D01*
X-640000Y260075D01*
X-633726Y278076D01*
X-631872Y284187D01*
X-631725Y284925D01*
X-441870D01*
X-433631Y272985D01*
D02*
G37*
%LPC*%
G36*
X-890000Y1620085D02*
X-960000D01*
X-968637Y1619745D01*
X-977221Y1618729D01*
X-985699Y1617043D01*
X-994018Y1614697D01*
X-1002128Y1611705D01*
X-1009977Y1608086D01*
X-1017519Y1603863D01*
X-1024706Y1599060D01*
X-1031494Y1593709D01*
X-1037842Y1587842D01*
X-1043709Y1581494D01*
X-1049060Y1574706D01*
X-1053863Y1567519D01*
X-1058086Y1559977D01*
X-1061705Y1552128D01*
X-1064697Y1544018D01*
X-1067043Y1535699D01*
X-1068729Y1527221D01*
X-1069745Y1518637D01*
X-1070085Y1510000D01*
X-1069745Y1501363D01*
X-1068729Y1492779D01*
X-1067043Y1484301D01*
X-1064697Y1475982D01*
X-1061705Y1467872D01*
X-1058086Y1460023D01*
X-1053863Y1452481D01*
X-1049060Y1445294D01*
X-1043709Y1438506D01*
X-1037842Y1432158D01*
X-1031494Y1426291D01*
X-1024706Y1420940D01*
X-1017519Y1416137D01*
X-1009977Y1411914D01*
X-1002128Y1408295D01*
X-994018Y1405303D01*
X-985699Y1402957D01*
X-977221Y1401271D01*
X-968637Y1400255D01*
X-960000Y1399915D01*
X-890000D01*
X-881363Y1400255D01*
X-872779Y1401271D01*
X-864301Y1402957D01*
X-855982Y1405303D01*
X-847872Y1408295D01*
X-840022Y1411914D01*
X-832481Y1416137D01*
X-825294Y1420940D01*
X-818506Y1426291D01*
X-812158Y1432158D01*
X-806291Y1438506D01*
X-800939Y1445294D01*
X-796137Y1452481D01*
X-791914Y1460023D01*
X-788295Y1467872D01*
X-785303Y1475982D01*
X-782957Y1484301D01*
X-781270Y1492779D01*
X-780254Y1501363D01*
X-779915Y1510000D01*
X-780254Y1518637D01*
X-781270Y1527221D01*
X-782957Y1535699D01*
X-785303Y1544018D01*
X-788295Y1552128D01*
X-791914Y1559977D01*
X-796137Y1567519D01*
X-800939Y1574706D01*
X-806291Y1581494D01*
X-812158Y1587842D01*
X-818506Y1593709D01*
X-825294Y1599060D01*
X-832481Y1603863D01*
X-840022Y1608086D01*
X-847872Y1611705D01*
X-855982Y1614697D01*
X-864301Y1617043D01*
X-872779Y1618729D01*
X-881363Y1619745D01*
X-890000Y1620085D01*
D02*
G37*
G36*
X794821Y1545000D02*
X785179D01*
X775560Y1544312D01*
X766015Y1542940D01*
X756592Y1540890D01*
X747340Y1538173D01*
X738305Y1534803D01*
X729533Y1530797D01*
X721070Y1526176D01*
X712957Y1520962D01*
X705238Y1515183D01*
X697950Y1508868D01*
X691131Y1502050D01*
X684816Y1494762D01*
X679038Y1487042D01*
X673824Y1478930D01*
X669203Y1470466D01*
X665197Y1461695D01*
X664585Y1460055D01*
X659393Y1459763D01*
X653856Y1458823D01*
X648460Y1457268D01*
X643271Y1455119D01*
X638356Y1452402D01*
X633776Y1449153D01*
X629589Y1445411D01*
X579589Y1395411D01*
X575847Y1391223D01*
X572597Y1386643D01*
X569880Y1381728D01*
X567731Y1376540D01*
X566177Y1371143D01*
X565236Y1365607D01*
X564921Y1360000D01*
Y1260817D01*
X563650Y1257749D01*
X562732Y1253923D01*
X562423Y1250000D01*
Y1220000D01*
X562732Y1216077D01*
X563650Y1212251D01*
X565156Y1208615D01*
X567212Y1205260D01*
X569768Y1202268D01*
X566887Y1194976D01*
X564798Y1191567D01*
X563268Y1187873D01*
X562335Y1183986D01*
X562021Y1180000D01*
Y1167699D01*
X615000D01*
Y1154999D01*
D01*
Y1167699D01*
X667978D01*
Y1180000D01*
X667665Y1183986D01*
X666731Y1187873D01*
X665201Y1191567D01*
X663112Y1194976D01*
X660232Y1202268D01*
X662788Y1205260D01*
X664844Y1208615D01*
X666350Y1212251D01*
X667268Y1216077D01*
X667577Y1220000D01*
Y1250000D01*
X667268Y1253923D01*
X666350Y1257749D01*
X665078Y1260818D01*
Y1310092D01*
X667947Y1312293D01*
X690078Y1319164D01*
X691131Y1317950D01*
X697950Y1311131D01*
X705238Y1304816D01*
X712957Y1299037D01*
X721070Y1293824D01*
X729533Y1289202D01*
X738305Y1285197D01*
X747340Y1281826D01*
X756592Y1279110D01*
X766015Y1277060D01*
X775560Y1275688D01*
X785179Y1275000D01*
X794821D01*
X804440Y1275688D01*
X813985Y1277060D01*
X823408Y1279110D01*
X832660Y1281826D01*
X841695Y1285197D01*
X850467Y1289202D01*
X858930Y1293824D01*
X867043Y1299037D01*
X874762Y1304816D01*
X882050Y1311131D01*
X888869Y1317950D01*
X895184Y1325237D01*
X900962Y1332957D01*
X906176Y1341069D01*
X910797Y1349533D01*
X914803Y1358305D01*
X918173Y1367340D01*
X920890Y1376592D01*
X922940Y1386015D01*
X924312Y1395560D01*
X925000Y1405178D01*
Y1414821D01*
X924312Y1424440D01*
X922940Y1433985D01*
X920890Y1443407D01*
X918173Y1452660D01*
X914803Y1461695D01*
X910797Y1470466D01*
X906176Y1478930D01*
X900962Y1487042D01*
X895184Y1494762D01*
X888869Y1502050D01*
X882050Y1508868D01*
X874762Y1515183D01*
X867043Y1520962D01*
X858930Y1526176D01*
X850467Y1530797D01*
X841695Y1534803D01*
X832660Y1538173D01*
X823408Y1540890D01*
X813985Y1542940D01*
X804440Y1544312D01*
X794821Y1545000D01*
D02*
G37*
G36*
X666773Y1142299D02*
X627700D01*
Y1104522D01*
X630000D01*
X633986Y1104835D01*
X637873Y1105768D01*
X641567Y1107299D01*
X644976Y1109387D01*
X648016Y1111984D01*
X650613Y1115024D01*
X652702Y1118433D01*
X654232Y1122127D01*
X655165Y1126014D01*
X655327Y1128070D01*
X657476Y1129387D01*
X660516Y1131984D01*
X663112Y1135024D01*
X665201Y1138433D01*
X666731Y1142127D01*
X666773Y1142299D01*
D02*
G37*
G36*
X602300D02*
X563227D01*
X563268Y1142127D01*
X564798Y1138433D01*
X566887Y1135024D01*
X569484Y1131984D01*
X572524Y1129387D01*
X574673Y1128070D01*
X574835Y1126014D01*
X575768Y1122127D01*
X577299Y1118433D01*
X579387Y1115024D01*
X581984Y1111984D01*
X585024Y1109387D01*
X588433Y1107299D01*
X592127Y1105768D01*
X596014Y1104835D01*
X600000Y1104522D01*
X602300D01*
Y1142299D01*
D02*
G37*
G36*
X466773Y1142300D02*
X427700D01*
Y1104522D01*
X430000D01*
X433986Y1104835D01*
X437873Y1105768D01*
X441567Y1107299D01*
X444976Y1109387D01*
X448016Y1111984D01*
X450613Y1115024D01*
X452701Y1118433D01*
X454232Y1122127D01*
X455165Y1126014D01*
X455326Y1128070D01*
X457476Y1129387D01*
X460516Y1131984D01*
X463112Y1135024D01*
X465201Y1138433D01*
X466731Y1142127D01*
X466773Y1142300D01*
D02*
G37*
G36*
X402300D02*
X363227D01*
X363268Y1142127D01*
X364798Y1138433D01*
X366887Y1135024D01*
X369484Y1131984D01*
X372524Y1129387D01*
X374673Y1128070D01*
X374835Y1126014D01*
X375768Y1122127D01*
X377298Y1118433D01*
X379387Y1115024D01*
X381984Y1111984D01*
X385024Y1109387D01*
X388433Y1107299D01*
X392127Y1105768D01*
X396014Y1104835D01*
X400000Y1104522D01*
X402300D01*
Y1142300D01*
D02*
G37*
G36*
X-506700Y1048500D02*
X-539200D01*
Y1006000D01*
X-506700D01*
Y1048500D01*
D02*
G37*
G36*
X802500Y1124451D02*
Y1002500D01*
X924451D01*
X924312Y1004440D01*
X922940Y1013985D01*
X920890Y1023407D01*
X918173Y1032660D01*
X914803Y1041695D01*
X910797Y1050467D01*
X906176Y1058930D01*
X900962Y1067043D01*
X895184Y1074762D01*
X888869Y1082050D01*
X882050Y1088869D01*
X874762Y1095183D01*
X867043Y1100962D01*
X858930Y1106176D01*
X850467Y1110797D01*
X841695Y1114803D01*
X832660Y1118173D01*
X823408Y1120890D01*
X813985Y1122940D01*
X804440Y1124312D01*
X802500Y1124451D01*
D02*
G37*
G36*
X777501D02*
X775560Y1124312D01*
X766015Y1122940D01*
X756592Y1120890D01*
X747340Y1118173D01*
X738305Y1114803D01*
X729533Y1110797D01*
X721070Y1106176D01*
X712957Y1100962D01*
X705238Y1095183D01*
X697950Y1088869D01*
X691131Y1082050D01*
X684816Y1074762D01*
X679038Y1067043D01*
X673824Y1058930D01*
X669203Y1050467D01*
X665197Y1041695D01*
X661827Y1032660D01*
X659110Y1023407D01*
X657060Y1013985D01*
X655688Y1004440D01*
X655549Y1002500D01*
X777501D01*
Y1124451D01*
D02*
G37*
G36*
X252500D02*
Y1002499D01*
X374451D01*
X374312Y1004440D01*
X372940Y1013985D01*
X370890Y1023407D01*
X368173Y1032660D01*
X364803Y1041695D01*
X360797Y1050467D01*
X356176Y1058930D01*
X350962Y1067043D01*
X345184Y1074762D01*
X338869Y1082050D01*
X332050Y1088869D01*
X324762Y1095183D01*
X317043Y1100962D01*
X308930Y1106176D01*
X300467Y1110797D01*
X291695Y1114803D01*
X282660Y1118173D01*
X273408Y1120890D01*
X263985Y1122940D01*
X254440Y1124312D01*
X252500Y1124451D01*
D02*
G37*
G36*
X924451Y977500D02*
X802500D01*
Y855549D01*
X804440Y855688D01*
X813985Y857060D01*
X823408Y859110D01*
X832660Y861827D01*
X841695Y865197D01*
X850467Y869202D01*
X858930Y873824D01*
X867043Y879037D01*
X874762Y884816D01*
X882050Y891131D01*
X888869Y897950D01*
X895184Y905237D01*
X900962Y912957D01*
X906176Y921070D01*
X910797Y929533D01*
X914803Y938305D01*
X918173Y947340D01*
X920890Y956592D01*
X922940Y966015D01*
X924312Y975560D01*
X924451Y977500D01*
D02*
G37*
G36*
X374451Y977499D02*
X252500D01*
Y855549D01*
X254440Y855688D01*
X263985Y857060D01*
X273408Y859110D01*
X282660Y861827D01*
X291695Y865197D01*
X300467Y869202D01*
X308930Y873824D01*
X317043Y879037D01*
X324762Y884816D01*
X332050Y891131D01*
X338869Y897950D01*
X345184Y905237D01*
X350962Y912957D01*
X356176Y921070D01*
X360797Y929533D01*
X364803Y938305D01*
X368173Y947340D01*
X370890Y956592D01*
X372940Y966015D01*
X374312Y975560D01*
X374451Y977499D01*
D02*
G37*
G36*
X777501Y977500D02*
X655549D01*
X655688Y975560D01*
X657060Y966015D01*
X659110Y956592D01*
X661827Y947340D01*
X665197Y938305D01*
X669203Y929533D01*
X673824Y921070D01*
X679038Y912957D01*
X684816Y905237D01*
X691131Y897950D01*
X697950Y891131D01*
X705238Y884816D01*
X712957Y879037D01*
X721070Y873824D01*
X729533Y869202D01*
X738305Y865197D01*
X747340Y861827D01*
X756592Y859110D01*
X766015Y857060D01*
X775560Y855688D01*
X777501Y855549D01*
Y977500D01*
D02*
G37*
G36*
X515000Y825000D02*
X460000D01*
Y782500D01*
X515000D01*
Y825000D01*
D02*
G37*
G36*
X-890000Y858085D02*
X-912500D01*
Y760500D01*
X-780712D01*
X-781270Y765221D01*
X-782957Y773699D01*
X-785303Y782018D01*
X-788295Y790128D01*
X-791914Y797977D01*
X-796137Y805519D01*
X-800939Y812706D01*
X-806291Y819494D01*
X-812158Y825842D01*
X-818506Y831709D01*
X-825294Y837060D01*
X-832481Y841863D01*
X-840022Y846086D01*
X-847872Y849705D01*
X-855982Y852697D01*
X-864301Y855043D01*
X-872779Y856729D01*
X-881363Y857745D01*
X-890000Y858085D01*
D02*
G37*
G36*
X-937500D02*
X-960000D01*
X-968637Y857745D01*
X-977221Y856729D01*
X-985699Y855043D01*
X-994018Y852697D01*
X-1002128Y849705D01*
X-1009977Y846086D01*
X-1017519Y841863D01*
X-1024706Y837060D01*
X-1031494Y831709D01*
X-1037842Y825842D01*
X-1043709Y819494D01*
X-1049060Y812706D01*
X-1053863Y805519D01*
X-1058086Y797977D01*
X-1061705Y790128D01*
X-1064697Y782018D01*
X-1067043Y773699D01*
X-1068729Y765221D01*
X-1069288Y760500D01*
X-937500D01*
Y858085D01*
D02*
G37*
G36*
X-506700Y794500D02*
X-539200D01*
Y752000D01*
X-506700D01*
Y794500D01*
D02*
G37*
G36*
X-780712Y735500D02*
X-912500D01*
Y637915D01*
X-890000D01*
X-881363Y638255D01*
X-872779Y639271D01*
X-864301Y640957D01*
X-855982Y643303D01*
X-847872Y646295D01*
X-840022Y649914D01*
X-832481Y654137D01*
X-825294Y658940D01*
X-818506Y664291D01*
X-812158Y670158D01*
X-806291Y676506D01*
X-800939Y683294D01*
X-796137Y690481D01*
X-791914Y698023D01*
X-788295Y705872D01*
X-785303Y713982D01*
X-782957Y722301D01*
X-781270Y730779D01*
X-780712Y735500D01*
D02*
G37*
G36*
X-937500D02*
X-1069288D01*
X-1068729Y730779D01*
X-1067043Y722301D01*
X-1064697Y713982D01*
X-1061705Y705872D01*
X-1058086Y698023D01*
X-1053863Y690481D01*
X-1049060Y683294D01*
X-1043709Y676506D01*
X-1037842Y670158D01*
X-1031494Y664291D01*
X-1024706Y658940D01*
X-1017519Y654137D01*
X-1009977Y649914D01*
X-1002128Y646295D01*
X-994018Y643303D01*
X-985699Y640957D01*
X-977221Y639271D01*
X-968637Y638255D01*
X-960000Y637915D01*
X-937500D01*
Y735500D01*
D02*
G37*
G36*
X515000Y647500D02*
X460001D01*
Y605000D01*
X515000D01*
Y647500D01*
D02*
G37*
G36*
X697500Y525500D02*
X607500D01*
Y483000D01*
X697500D01*
Y525500D01*
D02*
G37*
G36*
X582500D02*
X492500D01*
Y483000D01*
X582500D01*
Y525500D01*
D02*
G37*
G36*
X-640000Y515000D02*
X-682500D01*
Y482500D01*
X-640000D01*
Y515000D01*
D02*
G37*
G36*
X857500Y137501D02*
X805000D01*
Y92500D01*
X857500D01*
Y137501D01*
D02*
G37*
%LPD*%
D10*
X-695000Y215075D02*
D03*
Y470000D02*
D03*
Y145075D02*
D03*
Y400000D02*
D03*
D11*
X-551700Y1061000D02*
D03*
Y807000D02*
D03*
X-621700Y1061000D02*
D03*
Y807000D02*
D03*
D12*
X-97500Y785000D02*
D03*
Y675000D02*
D03*
D13*
X-330000Y1080000D02*
D03*
X870000Y150000D02*
D03*
X-481700Y145000D02*
D03*
X-591700D02*
D03*
X980000Y150000D02*
D03*
X-220000Y1080000D02*
D03*
X-330000Y1180000D02*
D03*
X-220000D02*
D03*
X-330000Y980000D02*
D03*
X-220000D02*
D03*
X-220000Y880000D02*
D03*
X-330000D02*
D03*
X-531700Y1161000D02*
D03*
X-641700D02*
D03*
X-531700Y907000D02*
D03*
X-641700D02*
D03*
X-591700Y399000D02*
D03*
X-481700D02*
D03*
D14*
X447500Y770000D02*
D03*
Y660000D02*
D03*
X332500Y770000D02*
D03*
Y660000D02*
D03*
D15*
X-100000Y890000D02*
D03*
Y990000D02*
D03*
X30000Y940000D02*
D03*
X-339500Y780000D02*
D03*
Y680000D02*
D03*
X-210500Y730000D02*
D03*
D16*
X595000Y470500D02*
D03*
X55000Y89500D02*
D03*
Y216500D02*
D03*
X595000Y343500D02*
D03*
Y216500D02*
D03*
Y89500D02*
D03*
X55000Y343500D02*
D03*
Y470500D02*
D03*
D17*
X415000Y1155000D02*
D03*
X615000D02*
D03*
D18*
Y1245000D02*
D03*
X415000D02*
D03*
D19*
X-135000Y530000D02*
D03*
X-315000D02*
D03*
X-225000Y330000D02*
D03*
D20*
X36000Y680000D02*
D03*
X194000D02*
D03*
D21*
X-636500Y1420000D02*
D03*
X-113500D02*
D03*
D22*
X1000000Y280000D02*
D03*
X850000D02*
D03*
D23*
X-65000Y1160000D02*
D03*
X75000D02*
D03*
D24*
X-925000Y1256000D02*
X-805000D01*
X-710000Y1161000D01*
X-641700D01*
X-805000Y1002000D02*
X-710000Y907000D01*
X-641700D01*
X-925000Y1002000D02*
X-805000D01*
X-875000Y360000D02*
X-785000D01*
X-768233Y343233D01*
X-740075Y215075D02*
X-695000D01*
X-768233Y243233D02*
Y343233D01*
Y243233D02*
X-740075Y215075D01*
X-25500Y89500D02*
X55000D01*
X-55055Y59945D02*
X-25500Y89500D01*
X-429145Y59945D02*
X-55055D01*
X-481700Y112500D02*
X-429145Y59945D01*
X-335000Y100000D02*
X-85000D01*
X-35000Y150000D01*
X385000D01*
X-774000Y399000D02*
X-695000D01*
X-925000Y494000D02*
X-869000D01*
X-774000Y399000D01*
X-695000D02*
X-591700D01*
X-830000Y145000D02*
X-695000D01*
X-925000Y240000D02*
X-830000Y145000D01*
X-65000Y250000D02*
X-35000Y280000D01*
X315000D01*
X-350000Y250000D02*
X-65000D01*
X-375000Y225000D02*
X-350000Y250000D01*
X-180000Y675000D02*
X-97500D01*
X-198459Y693459D02*
X-180000Y675000D01*
X-198459Y693459D02*
Y722700D01*
X-210500Y730000D02*
X-205759D01*
X-198459Y722700D01*
X-481700Y399000D02*
X-430700Y450000D01*
X-85000D01*
X-694925Y145000D02*
X-591700D01*
X-405000Y390000D02*
X-385000Y410000D01*
X-430000Y320000D02*
X-405000Y345000D01*
X-385000Y410000D02*
X-59000D01*
X-405000Y345000D02*
Y390000D01*
X-675000Y320000D02*
X-430000D01*
X-365000Y130000D02*
X-335000Y100000D01*
X-255000Y170000D02*
X-85000D01*
X-38500Y216500D01*
X55000D01*
X-59000Y410000D02*
X7500Y343500D01*
X55000D01*
X-695000Y300000D02*
X-675000Y320000D01*
X755000Y280000D02*
X850000D01*
X725000Y250000D02*
X755000Y280000D01*
X725000Y170000D02*
Y250000D01*
X705000Y150000D02*
X725000Y170000D01*
X705000Y110000D02*
Y150000D01*
X684500Y89500D02*
X705000Y110000D01*
X595000Y89500D02*
X684500D01*
X980000Y260000D02*
X1000000Y280000D01*
X980000Y150000D02*
Y260000D01*
X-330000Y1180000D02*
Y1235000D01*
X-365000Y1270000D02*
X-330000Y1235000D01*
X-475000Y1270000D02*
X-365000D01*
X-85000Y450000D02*
X-60000Y475000D01*
Y515000D01*
X315000Y280000D02*
X378500Y343500D01*
X595000D01*
X451500Y216500D02*
X595000D01*
X385000Y150000D02*
X451500Y216500D01*
X-60000Y515000D02*
X36000Y611001D01*
Y680000D01*
X-220721Y824279D02*
Y879279D01*
X-220000Y880000D01*
X-275000Y770000D02*
X-220721Y824279D01*
X-275000Y710000D02*
Y770000D01*
X-297959Y687041D02*
X-275000Y710000D01*
X-332459Y687041D02*
X-297959D01*
X-339500Y680000D02*
X-332459Y687041D01*
X-339500Y634500D02*
Y680000D01*
Y634500D02*
X-315000Y610000D01*
Y530000D02*
Y610000D01*
X-116541Y655959D02*
X-97500Y675000D01*
X-116541Y618459D02*
Y655959D01*
X-135000Y600000D02*
X-116541Y618459D01*
X-135000Y530000D02*
Y600000D01*
X-220000Y980000D02*
X-212500D01*
X-192700Y960200D01*
Y954879D02*
Y960200D01*
Y954879D02*
X-177821Y940000D01*
X30000D01*
X-138591Y1080000D02*
X-100000Y1041409D01*
Y990000D02*
Y1041409D01*
X-220000Y1080000D02*
X-138591D01*
X-220000Y1180000D02*
X-220000Y1179999D01*
Y1080000D02*
Y1179999D01*
X-330000Y980000D02*
X-330000Y980000D01*
Y880000D02*
Y980000D01*
X-339500Y870499D02*
X-330000Y880000D01*
X-339500Y780000D02*
Y870499D01*
X-641700Y907000D02*
X-641500D01*
X-621700Y887200D01*
Y807000D02*
Y887200D01*
X-641700Y1161000D02*
X-641500D01*
X-621700Y1141200D01*
Y1061000D02*
Y1141200D01*
D25*
X240000Y1410000D02*
X365000D01*
X415000Y1245000D02*
Y1360000D01*
X365000Y1410000D02*
X415000Y1360000D01*
X615000D02*
X665000Y1410000D01*
X615000Y1245000D02*
Y1360000D01*
X665000Y1410000D02*
X790000D01*
X-65000Y1160000D02*
Y1371500D01*
X-113500Y1420000D02*
X-65000Y1371500D01*
X332500Y660000D02*
Y770000D01*
X214000Y660000D02*
X332500D01*
X194000Y680000D02*
X214000Y660000D01*
X178717Y664717D02*
X194000Y680000D01*
X178717Y594217D02*
Y664717D01*
X107500Y523000D02*
X178717Y594217D01*
X107500Y475500D02*
Y523000D01*
X102500Y470500D02*
X107500Y475500D01*
X55000Y470500D02*
X102500D01*
X75000Y1245000D02*
X240000Y1410000D01*
X75000Y1160000D02*
Y1245000D01*
D26*
X-325000Y330000D02*
X-225000D01*
X-125000D01*
D27*
X240000Y990000D02*
D03*
X790000D02*
D03*
X240000Y1410000D02*
D03*
X790000D02*
D03*
D28*
X-925000Y748000D02*
D03*
Y1510000D02*
D03*
Y1256000D02*
D03*
Y1002000D02*
D03*
Y494000D02*
D03*
D29*
Y240000D02*
D03*
D30*
X1020000Y550000D02*
D03*
X870000D02*
D03*
Y400000D02*
D03*
X1020000D02*
D03*
X-780000Y66000D02*
D03*
X-125000Y1669999D02*
D03*
X-1025000Y1649999D02*
D03*
X-471700Y1061000D02*
D03*
X200000Y360000D02*
D03*
Y480000D02*
D03*
X770000Y66000D02*
D03*
X547500Y770000D02*
D03*
Y660000D02*
D03*
X-625000Y710000D02*
D03*
X55000Y79500D02*
D03*
X-481700Y112500D02*
D03*
X-255000Y170000D02*
D03*
X-475000Y1470000D02*
D03*
X-375000D02*
D03*
X-695000Y300000D02*
D03*
X-475000Y1270000D02*
D03*
X-365000Y130000D02*
D03*
X-375000Y225000D02*
D03*
X-531700Y1161000D02*
D03*
X-471700Y907000D02*
D03*
X36000Y680000D02*
D03*
X-365000Y530000D02*
D03*
X-265000D02*
D03*
X-465000D02*
D03*
X-325000Y330000D02*
D03*
X-125000D02*
D03*
X-225000D02*
D03*
%TF.MD5,792442fe06c0c7fb99c8d0d44522679e*%
M02*
