%TF.GenerationSoftware,Altium Limited,Altium Designer,26.5.1 (12)*%
G04 Layer_Physical_Order=2*
G04 Layer_Color=10964583*
G04 Board_Origin=46948819|29015748*
%FSLAX45Y45*%
%MOMM*%
%TF.SameCoordinates,F5B28851-A897-448A-83EB-F940FC8B259D*%
%TF.FilePolarity,Positive*%
%TF.FileFunction,Copper,L2,Bot,Signal*%
%TF.Part,Single*%
G01*
G75*
%TA.AperFunction,SMDPad,CuDef*%
%ADD12R,0.65000X0.80000*%
%ADD13R,0.80000X0.65000*%
%TA.AperFunction,Conductor*%
%ADD24C,0.20000*%
%ADD25C,0.50000*%
%ADD26C,0.80000*%
%TA.AperFunction,ComponentPad*%
%ADD27C,2.20000*%
%ADD28O,2.40000X1.70000*%
%ADD29R,2.40000X1.70000*%
%TA.AperFunction,ViaPad*%
%ADD30C,0.80000*%
%TA.AperFunction,SMDPad,CuDef*%
%ADD31R,1.00000X1.60000*%
%ADD32R,1.30000X1.80000*%
%ADD33R,1.00000X0.48000*%
%ADD34R,0.60000X0.50000*%
G36*
X1046734Y1721647D02*
X1060294Y1716031D01*
X1072499Y1707875D01*
X1082876Y1697498D01*
X1091031Y1685293D01*
X1096648Y1671733D01*
X1099512Y1657338D01*
Y1649999D01*
Y490479D01*
Y92661D01*
D01*
X1096648Y78266D01*
X1091031Y64706D01*
X1082876Y52501D01*
X1072499Y42124D01*
X1060294Y33968D01*
X1046734Y28352D01*
X1032339Y25488D01*
X458414D01*
X451537Y32041D01*
X443855Y49738D01*
X444027Y50488D01*
X444768Y53577D01*
X445077Y57500D01*
X445077Y97563D01*
X469937Y122423D01*
X751500D01*
X751503Y122423D01*
X753138D01*
X754774Y122552D01*
X756412Y122638D01*
X759661Y123066D01*
X761264Y123406D01*
X762877Y123705D01*
X766043Y124553D01*
X767588Y125101D01*
X769149Y125608D01*
X772177Y126862D01*
X773637Y127606D01*
X775120Y128313D01*
X777958Y129951D01*
X779309Y130881D01*
X780685Y131774D01*
X783285Y133769D01*
X784503Y134866D01*
X785751Y135932D01*
X788068Y138249D01*
X789132Y139495D01*
X790230Y140714D01*
X792225Y143314D01*
X793119Y144690D01*
X794048Y146042D01*
X795687Y148880D01*
X796394Y150363D01*
X797138Y151823D01*
X798392Y154851D01*
X798899Y156412D01*
X799446Y157957D01*
X800295Y161123D01*
X800594Y162738D01*
X800934Y164337D01*
X801362Y167586D01*
X801448Y169223D01*
X801500Y169884D01*
Y554984D01*
Y578000D01*
D01*
X801500Y578000D01*
X818422Y594922D01*
X945000D01*
X951379Y595235D01*
X957696Y596172D01*
X963891Y597724D01*
X969904Y599875D01*
X975678Y602606D01*
X981156Y605889D01*
X986285Y609694D01*
X991017Y613983D01*
X1041015Y663980D01*
X1041017Y663983D01*
X1045306Y668715D01*
X1049111Y673844D01*
X1052394Y679322D01*
X1055125Y685096D01*
X1057276Y691109D01*
X1058828Y697304D01*
X1059765Y703621D01*
X1060078Y710000D01*
Y1519995D01*
X1060079Y1520000D01*
X1059765Y1526379D01*
X1058828Y1532696D01*
X1057276Y1538891D01*
X1055125Y1544904D01*
X1052394Y1550678D01*
X1049111Y1556156D01*
X1045306Y1561285D01*
X1041017Y1566017D01*
X1041015Y1566020D01*
X951017Y1656018D01*
X946285Y1660306D01*
X941156Y1664111D01*
X935678Y1667394D01*
X929904Y1670125D01*
X923891Y1672276D01*
X917696Y1673828D01*
X911379Y1674765D01*
X905000Y1675078D01*
X25000D01*
X18621Y1674765D01*
X12304Y1673828D01*
X6109Y1672276D01*
X96Y1670125D01*
X-5678Y1667394D01*
X-11156Y1664111D01*
X-16285Y1660306D01*
X-21017Y1656018D01*
X-141957Y1535078D01*
X-180000D01*
Y1607500D01*
X-255001D01*
X-330000D01*
Y1545077D01*
X-525250D01*
X-529173Y1544768D01*
X-532999Y1543850D01*
X-536635Y1542344D01*
X-550421Y1548066D01*
X-560000Y1555208D01*
Y1724511D01*
X-330000D01*
Y1632500D01*
X-255001D01*
X-180000D01*
Y1724511D01*
X1032338D01*
X1046734Y1721647D01*
D02*
G37*
G36*
X-325000Y1420000D02*
X-525250D01*
Y1520000D01*
X-325000D01*
Y1420000D01*
D02*
G37*
G36*
X929922Y1325781D02*
Y1074218D01*
X907878Y1060470D01*
X904922Y1060882D01*
X900962Y1067043D01*
X895184Y1074762D01*
X888869Y1082050D01*
X882050Y1088869D01*
X874762Y1095183D01*
X867043Y1100962D01*
X858930Y1106176D01*
X850467Y1110797D01*
X841695Y1114803D01*
X832660Y1118173D01*
X823408Y1120890D01*
X813985Y1122940D01*
X804440Y1124312D01*
X802500Y1124451D01*
Y990000D01*
Y855549D01*
X804440Y855688D01*
X813985Y857060D01*
X823408Y859110D01*
X832660Y861827D01*
X841695Y865197D01*
X850467Y869202D01*
X858930Y873824D01*
X867043Y879037D01*
X874762Y884816D01*
X882050Y891131D01*
X888869Y897950D01*
X895184Y905237D01*
X900962Y912957D01*
X904922Y919118D01*
X907878Y919529D01*
X929922Y905782D01*
Y736956D01*
X918043Y725078D01*
X775000D01*
X768621Y724765D01*
X762304Y723828D01*
X756109Y722276D01*
X750096Y720125D01*
X744322Y717394D01*
X738844Y714111D01*
X733715Y710306D01*
X728983Y706017D01*
X728980Y706015D01*
X681483Y658517D01*
X677194Y653785D01*
X673389Y648656D01*
X670106Y643178D01*
X667375Y637404D01*
X665224Y631391D01*
X663672Y625196D01*
X662735Y618879D01*
X662422Y612500D01*
Y579077D01*
X576387D01*
X547732Y607732D01*
X545000Y610066D01*
Y615000D01*
X530984D01*
X530000Y615077D01*
X390000D01*
X389306Y621684D01*
X389229Y622671D01*
X389152Y623156D01*
X388997Y624626D01*
X387461Y634327D01*
X387231Y635287D01*
X387077Y636259D01*
X384784Y645810D01*
X384479Y646748D01*
X384249Y647705D01*
X381214Y657047D01*
X380837Y657957D01*
X380532Y658895D01*
X376773Y667969D01*
X376326Y668847D01*
X375949Y669757D01*
X371490Y678509D01*
X370975Y679349D01*
X370528Y680227D01*
X365395Y688602D01*
X364817Y689398D01*
X364302Y690239D01*
X358528Y698186D01*
X357889Y698934D01*
X357309Y699732D01*
X350930Y707201D01*
X350234Y707897D01*
X349593Y708647D01*
X342648Y715593D01*
X341898Y716233D01*
X341202Y716929D01*
X333732Y723309D01*
X332935Y723888D01*
X332186Y724528D01*
X324239Y730301D01*
X323399Y730816D01*
X322603Y731395D01*
X314228Y736527D01*
X313351Y736974D01*
X312509Y737490D01*
X303757Y741949D01*
X302846Y742326D01*
X301969Y742773D01*
X292895Y746532D01*
X291959Y746836D01*
X291047Y747214D01*
X281705Y750249D01*
X280748Y750479D01*
X279810Y750783D01*
X270259Y753076D01*
X269286Y753230D01*
X268327Y753461D01*
X258626Y754997D01*
X257642Y755075D01*
X256671Y755228D01*
X246879Y755999D01*
X245895D01*
X244911Y756077D01*
X-10000D01*
X-13923Y755768D01*
X-16942Y755043D01*
X-17784Y754865D01*
X-35372Y762571D01*
X-35483Y762644D01*
X-41942Y769472D01*
Y1031023D01*
X61956Y1134922D01*
X172178D01*
X179533Y1110797D01*
X171070Y1106176D01*
X162957Y1100962D01*
X155238Y1095183D01*
X147950Y1088869D01*
X141131Y1082050D01*
X134816Y1074762D01*
X129038Y1067043D01*
X123824Y1058930D01*
X119203Y1050467D01*
X115197Y1041695D01*
X111827Y1032660D01*
X109110Y1023407D01*
X107060Y1013985D01*
X105688Y1004440D01*
X105549Y1002499D01*
X240000D01*
X374451D01*
X374312Y1004440D01*
X372940Y1013985D01*
X370890Y1023407D01*
X368173Y1032660D01*
X364803Y1041695D01*
X360797Y1050467D01*
X356176Y1058930D01*
X350962Y1067043D01*
X345184Y1074762D01*
X338869Y1082050D01*
X332050Y1088869D01*
X324762Y1095183D01*
X317043Y1100962D01*
X308930Y1106176D01*
X300467Y1110797D01*
X307822Y1134922D01*
X580000D01*
X586379Y1135235D01*
X592696Y1136172D01*
X598891Y1137724D01*
X604905Y1139875D01*
X610678Y1142606D01*
X616156Y1145889D01*
X621286Y1149694D01*
X626018Y1153982D01*
X752381Y1280346D01*
X756592Y1279110D01*
X766015Y1277060D01*
X775560Y1275688D01*
X785179Y1275000D01*
X794821D01*
X804440Y1275688D01*
X813985Y1277060D01*
X823408Y1279110D01*
X832660Y1281826D01*
X841695Y1285197D01*
X850467Y1289202D01*
X858930Y1293824D01*
X867043Y1299037D01*
X874762Y1304816D01*
X882050Y1311131D01*
X888869Y1317950D01*
X895184Y1325237D01*
X900962Y1332957D01*
X904922Y1339118D01*
X907878Y1339529D01*
X929922Y1325781D01*
D02*
G37*
G36*
X-710000Y1515000D02*
X-572988D01*
X-560000Y1515000D01*
X-550327Y1494007D01*
Y1420000D01*
X-550018Y1416077D01*
X-549100Y1412251D01*
X-547594Y1408615D01*
X-545538Y1405260D01*
X-542982Y1402268D01*
X-539990Y1399712D01*
X-536635Y1397656D01*
X-532999Y1396150D01*
X-529173Y1395232D01*
X-525250Y1394923D01*
X-325000D01*
X-321077Y1395232D01*
X-317251Y1396150D01*
X-313615Y1397656D01*
X-310260Y1399712D01*
X-307268Y1402268D01*
X-305001Y1404921D01*
X-115000D01*
X-108621Y1405235D01*
X-102304Y1406172D01*
X-96109Y1407724D01*
X-90096Y1409875D01*
X-84322Y1412606D01*
X-78845Y1415889D01*
X-73715Y1419694D01*
X-68983Y1423982D01*
X51956Y1544922D01*
X151898D01*
X161809Y1523157D01*
X161567Y1519922D01*
X155238Y1515183D01*
X147950Y1508868D01*
X141131Y1502050D01*
X134816Y1494762D01*
X129038Y1487042D01*
X123824Y1478930D01*
X121721Y1475078D01*
X45000D01*
X38621Y1474765D01*
X32303Y1473828D01*
X26108Y1472276D01*
X20095Y1470124D01*
X14322Y1467394D01*
X8844Y1464110D01*
X3714Y1460306D01*
X-1018Y1456017D01*
X-259457Y1197578D01*
X-317500D01*
X-323879Y1197265D01*
X-330196Y1196328D01*
X-336391Y1194776D01*
X-342404Y1192624D01*
X-348178Y1189894D01*
X-353656Y1186611D01*
X-358785Y1182806D01*
X-363517Y1178517D01*
X-363520Y1178515D01*
X-411017Y1131017D01*
X-415306Y1126285D01*
X-419111Y1121155D01*
X-422394Y1115678D01*
X-425125Y1109904D01*
X-427276Y1103891D01*
X-428828Y1097696D01*
X-429765Y1091379D01*
X-430078Y1085000D01*
Y986803D01*
X-433146Y982140D01*
X-437828Y978236D01*
X-455079Y969883D01*
X-455887Y970128D01*
X-462151Y971374D01*
X-468507Y972000D01*
X-474893D01*
X-481249Y971374D01*
X-487513Y970128D01*
X-489925Y969396D01*
X-505028Y976209D01*
X-510253Y979844D01*
X-514925Y985946D01*
Y1098164D01*
X-509775Y1099726D01*
X-503875Y1102170D01*
X-498243Y1105180D01*
X-492932Y1108729D01*
X-487996Y1112780D01*
X-483480Y1117296D01*
X-479428Y1122233D01*
X-475880Y1127543D01*
X-472870Y1133175D01*
X-470426Y1139076D01*
X-468572Y1145187D01*
X-467326Y1151451D01*
X-466700Y1157807D01*
Y1164193D01*
X-467326Y1170549D01*
X-468572Y1176813D01*
X-469597Y1180193D01*
X-468415Y1187446D01*
X-461959Y1201036D01*
X-456438Y1207216D01*
X-455050Y1208127D01*
X-453076Y1208726D01*
X-447175Y1211170D01*
X-441543Y1214180D01*
X-436233Y1217729D01*
X-431296Y1221780D01*
X-426780Y1226296D01*
X-422729Y1231233D01*
X-419181Y1236543D01*
X-416170Y1242175D01*
X-413726Y1248076D01*
X-411872Y1254187D01*
X-410626Y1260451D01*
X-410000Y1266807D01*
Y1273193D01*
X-410626Y1279549D01*
X-411872Y1285813D01*
X-413726Y1291924D01*
X-416170Y1297825D01*
X-419181Y1303457D01*
X-422729Y1308767D01*
X-426780Y1313704D01*
X-431296Y1318220D01*
X-436233Y1322271D01*
X-441543Y1325820D01*
X-447175Y1328830D01*
X-453076Y1331274D01*
X-459187Y1333128D01*
X-465451Y1334374D01*
X-471807Y1335000D01*
X-478193D01*
X-484549Y1334374D01*
X-490813Y1333128D01*
X-496924Y1331274D01*
X-502825Y1328830D01*
X-508457Y1325820D01*
X-513767Y1322271D01*
X-518704Y1318220D01*
X-523220Y1313704D01*
X-527271Y1308767D01*
X-529738Y1305075D01*
X-565000D01*
X-569578Y1304775D01*
X-574078Y1303880D01*
X-578423Y1302405D01*
X-582537Y1300376D01*
X-586352Y1297827D01*
X-589802Y1294802D01*
X-789802Y1094802D01*
X-790844Y1093614D01*
X-795125Y1090847D01*
X-811375Y1087276D01*
X-815703Y1087206D01*
X-822075Y1088523D01*
X-825294Y1091060D01*
X-832481Y1095863D01*
X-840022Y1100086D01*
X-847872Y1103705D01*
X-855982Y1106697D01*
X-864301Y1109043D01*
X-872779Y1110729D01*
X-881363Y1111745D01*
X-890000Y1112085D01*
X-960000D01*
X-968637Y1111745D01*
X-977221Y1110729D01*
X-985699Y1109043D01*
X-994018Y1106697D01*
X-1002128Y1103705D01*
X-1009977Y1100086D01*
X-1017519Y1095863D01*
X-1024706Y1091060D01*
X-1031494Y1085709D01*
X-1037842Y1079842D01*
X-1043709Y1073494D01*
X-1049060Y1066706D01*
X-1053863Y1059519D01*
X-1058086Y1051977D01*
X-1061705Y1044128D01*
X-1064697Y1036018D01*
X-1067043Y1027699D01*
X-1068729Y1019221D01*
X-1069745Y1010637D01*
X-1070085Y1002000D01*
X-1069745Y993363D01*
X-1068729Y984779D01*
X-1067043Y976301D01*
X-1064697Y967982D01*
X-1061705Y959872D01*
X-1058086Y952023D01*
X-1053863Y944481D01*
X-1049060Y937294D01*
X-1043709Y930506D01*
X-1037842Y924158D01*
X-1031494Y918291D01*
X-1024706Y912940D01*
X-1017519Y908137D01*
X-1009977Y903914D01*
X-1002128Y900295D01*
X-994018Y897303D01*
X-985699Y894957D01*
X-977221Y893271D01*
X-968637Y892255D01*
X-960000Y891915D01*
X-890000D01*
X-881363Y892255D01*
X-872779Y893271D01*
X-864301Y894957D01*
X-855982Y897303D01*
X-847872Y900295D01*
X-840022Y903914D01*
X-832481Y908137D01*
X-825294Y912940D01*
X-825075Y913112D01*
X-804842Y905682D01*
X-800075Y901283D01*
Y848717D01*
X-804842Y844318D01*
X-825075Y836888D01*
X-825294Y837060D01*
X-832481Y841863D01*
X-840022Y846086D01*
X-847872Y849705D01*
X-855982Y852697D01*
X-864301Y855043D01*
X-872779Y856729D01*
X-881363Y857745D01*
X-890000Y858085D01*
X-912500D01*
Y748000D01*
Y637915D01*
X-890000D01*
X-881363Y638255D01*
X-872779Y639271D01*
X-864301Y640957D01*
X-855982Y643303D01*
X-847872Y646295D01*
X-840022Y649914D01*
X-832481Y654137D01*
X-825294Y658940D01*
X-825075Y659112D01*
X-804842Y651682D01*
X-800075Y647283D01*
Y640000D01*
X-799775Y635422D01*
X-798880Y630922D01*
X-797405Y626577D01*
X-795376Y622463D01*
X-792827Y618647D01*
X-789802Y615198D01*
X-730075Y555472D01*
Y354738D01*
X-733767Y352271D01*
X-738704Y348220D01*
X-743220Y343704D01*
X-747272Y338767D01*
X-750820Y333457D01*
X-753830Y327825D01*
X-756274Y321924D01*
X-780000Y329423D01*
Y350000D01*
X-1070000D01*
Y130000D01*
X-780000D01*
Y270577D01*
X-756274Y278075D01*
X-753830Y272175D01*
X-750820Y266543D01*
X-747272Y261233D01*
X-743220Y256296D01*
X-738704Y251780D01*
X-733767Y247728D01*
X-728457Y244180D01*
X-722825Y241170D01*
X-710000Y235000D01*
Y142500D01*
X-635000D01*
Y117501D01*
X-710000D01*
Y25488D01*
X-1032339D01*
X-1046735Y28352D01*
X-1060295Y33968D01*
X-1072500Y42124D01*
X-1082877Y52501D01*
X-1091032Y64706D01*
X-1096649Y78266D01*
X-1099512Y92661D01*
Y100000D01*
X-1099512Y1649999D01*
Y1657338D01*
X-1096648Y1671733D01*
X-1091032Y1685293D01*
X-1082876Y1697498D01*
X-1072499Y1707875D01*
X-1060294Y1716031D01*
X-1046734Y1721647D01*
X-1032339Y1724511D01*
X-710000D01*
Y1515000D01*
D02*
G37*
G36*
X-225000Y485000D02*
X-505000D01*
Y575000D01*
X-225000D01*
Y485000D01*
D02*
G37*
G36*
X566000Y554000D02*
X776500D01*
Y434000D01*
X677500Y434000D01*
X675865Y433946D01*
X672622Y433519D01*
X669464Y432673D01*
X666442Y431422D01*
X663610Y429787D01*
X661016Y427796D01*
X658704Y425484D01*
X656713Y422889D01*
X655078Y420057D01*
X653826Y417036D01*
X652980Y413877D01*
X652553Y410635D01*
X652500Y409000D01*
Y384000D01*
X390000D01*
Y590000D01*
X530000D01*
X566000Y554000D01*
D02*
G37*
G36*
X240000Y170000D02*
X110000D01*
Y590000D01*
X240000D01*
Y170000D01*
D02*
G37*
G36*
X254703Y730229D02*
X264405Y728692D01*
X273956Y726399D01*
X283298Y723364D01*
X292373Y719605D01*
X301125Y715146D01*
X309500Y710013D01*
X317446Y704240D01*
X324915Y697861D01*
X331861Y690915D01*
X338240Y683446D01*
X344014Y675499D01*
X349146Y667124D01*
X353605Y658372D01*
X357364Y649298D01*
X360399Y639956D01*
X362692Y630405D01*
X364229Y620703D01*
X365000Y610911D01*
Y606000D01*
Y375000D01*
X365053Y373365D01*
X365480Y370123D01*
X366326Y366964D01*
X367578Y363943D01*
X369213Y361111D01*
X371204Y358516D01*
X373516Y356204D01*
X376110Y354213D01*
X378942Y352578D01*
X381964Y351327D01*
X385122Y350480D01*
X388364Y350053D01*
X390000Y350000D01*
X652520Y350000D01*
X652634Y348410D01*
X653166Y345268D01*
X654093Y342218D01*
X655400Y339312D01*
X657067Y336595D01*
X659065Y334113D01*
X661363Y331905D01*
X663924Y330007D01*
X666705Y328451D01*
X669661Y327261D01*
X672745Y326456D01*
X675906Y326051D01*
X677500Y326000D01*
X677500D01*
X751500Y326000D01*
X753138D01*
X756387Y325572D01*
X759553Y324724D01*
X762581Y323470D01*
X765419Y321831D01*
X768019Y319836D01*
X770336Y317519D01*
X772331Y314919D01*
X773969Y312081D01*
X775223Y309053D01*
X776072Y305888D01*
X776500Y302639D01*
Y301000D01*
X776500D01*
X776500Y172500D01*
Y170861D01*
X776072Y167612D01*
X775223Y164447D01*
X773969Y161419D01*
X772331Y158581D01*
X770336Y155981D01*
X768019Y153664D01*
X765419Y151669D01*
X762581Y150030D01*
X759553Y148776D01*
X756387Y147928D01*
X753138Y147500D01*
X751500D01*
Y147500D01*
X444999D01*
X443364Y147446D01*
X440122Y147020D01*
X436963Y146173D01*
X433942Y144922D01*
X431110Y143287D01*
X428516Y141296D01*
X426203Y138984D01*
X424213Y136389D01*
X422578Y133557D01*
X421326Y130536D01*
X420480Y127377D01*
X420053Y124135D01*
X419999Y122500D01*
X420000Y57500D01*
X210000D01*
Y122500D01*
X240000D01*
X241635Y122553D01*
X244877Y122980D01*
X248036Y123827D01*
X251057Y125078D01*
X253889Y126713D01*
X256484Y128704D01*
X258796Y131016D01*
X260787Y133611D01*
X262422Y136443D01*
X263673Y139464D01*
X264519Y142623D01*
X264946Y145865D01*
X265000Y147500D01*
Y606000D01*
X264946Y607635D01*
X264519Y610877D01*
X263673Y614036D01*
X262422Y617057D01*
X260787Y619889D01*
X258796Y622483D01*
X256484Y624796D01*
X253889Y626786D01*
X251057Y628421D01*
X248036Y629673D01*
X244877Y630519D01*
X241635Y630946D01*
X240000Y631000D01*
X-10000D01*
Y731000D01*
X244911D01*
X254703Y730229D01*
D02*
G37*
%LPC*%
G36*
X777501Y1124451D02*
X775560Y1124312D01*
X766015Y1122940D01*
X756592Y1120890D01*
X747340Y1118173D01*
X738305Y1114803D01*
X729533Y1110797D01*
X721070Y1106176D01*
X712957Y1100962D01*
X705238Y1095183D01*
X697950Y1088869D01*
X691131Y1082050D01*
X684816Y1074762D01*
X679038Y1067043D01*
X673824Y1058930D01*
X669203Y1050467D01*
X665197Y1041695D01*
X661827Y1032660D01*
X659110Y1023407D01*
X657060Y1013985D01*
X655688Y1004440D01*
X655549Y1002500D01*
X777501D01*
Y1124451D01*
D02*
G37*
G36*
X374451Y977499D02*
X252500D01*
Y855549D01*
X254440Y855688D01*
X263985Y857060D01*
X273408Y859110D01*
X282660Y861827D01*
X291695Y865197D01*
X300467Y869202D01*
X308930Y873824D01*
X317043Y879037D01*
X324762Y884816D01*
X332050Y891131D01*
X338869Y897950D01*
X345184Y905237D01*
X350962Y912957D01*
X356176Y921070D01*
X360797Y929533D01*
X364803Y938305D01*
X368173Y947340D01*
X370890Y956592D01*
X372940Y966015D01*
X374312Y975560D01*
X374451Y977499D01*
D02*
G37*
G36*
X227500D02*
X105549D01*
X105688Y975560D01*
X107060Y966015D01*
X109110Y956592D01*
X111827Y947340D01*
X115197Y938305D01*
X119203Y929533D01*
X123824Y921070D01*
X129038Y912957D01*
X134816Y905237D01*
X141131Y897950D01*
X147950Y891131D01*
X155238Y884816D01*
X162957Y879037D01*
X171070Y873824D01*
X179533Y869202D01*
X188305Y865197D01*
X197340Y861827D01*
X206592Y859110D01*
X216015Y857060D01*
X225560Y855688D01*
X227500Y855549D01*
Y977499D01*
D02*
G37*
G36*
X777501Y977500D02*
X655549D01*
X655688Y975560D01*
X657060Y966015D01*
X659110Y956592D01*
X661827Y947340D01*
X665197Y938305D01*
X669203Y929533D01*
X673824Y921070D01*
X679038Y912957D01*
X684816Y905237D01*
X691131Y897950D01*
X697950Y891131D01*
X705238Y884816D01*
X712957Y879037D01*
X721070Y873824D01*
X729533Y869202D01*
X738305Y865197D01*
X747340Y861827D01*
X756592Y859110D01*
X766015Y857060D01*
X775560Y855688D01*
X777501Y855549D01*
Y977500D01*
D02*
G37*
G36*
X-890000Y1620085D02*
X-960000D01*
X-968637Y1619745D01*
X-977221Y1618729D01*
X-985699Y1617043D01*
X-994018Y1614697D01*
X-1002128Y1611705D01*
X-1009977Y1608086D01*
X-1017519Y1603863D01*
X-1024706Y1599060D01*
X-1031494Y1593709D01*
X-1037842Y1587842D01*
X-1043709Y1581494D01*
X-1049060Y1574706D01*
X-1053863Y1567519D01*
X-1058086Y1559977D01*
X-1061705Y1552128D01*
X-1064697Y1544018D01*
X-1067043Y1535699D01*
X-1068729Y1527221D01*
X-1069745Y1518637D01*
X-1070085Y1510000D01*
X-1069745Y1501363D01*
X-1068729Y1492779D01*
X-1067043Y1484301D01*
X-1064697Y1475982D01*
X-1061705Y1467872D01*
X-1058086Y1460023D01*
X-1053863Y1452481D01*
X-1049060Y1445294D01*
X-1043709Y1438506D01*
X-1037842Y1432158D01*
X-1031494Y1426291D01*
X-1024706Y1420940D01*
X-1017519Y1416137D01*
X-1009977Y1411914D01*
X-1002128Y1408295D01*
X-994018Y1405303D01*
X-985699Y1402957D01*
X-977221Y1401271D01*
X-968637Y1400255D01*
X-960000Y1399915D01*
X-890000D01*
X-881363Y1400255D01*
X-872779Y1401271D01*
X-864301Y1402957D01*
X-855982Y1405303D01*
X-847872Y1408295D01*
X-840022Y1411914D01*
X-832481Y1416137D01*
X-825294Y1420940D01*
X-818506Y1426291D01*
X-812158Y1432158D01*
X-806291Y1438506D01*
X-800939Y1445294D01*
X-796137Y1452481D01*
X-791914Y1460023D01*
X-788295Y1467872D01*
X-785303Y1475982D01*
X-782957Y1484301D01*
X-781270Y1492779D01*
X-780254Y1501363D01*
X-779915Y1510000D01*
X-780254Y1518637D01*
X-781270Y1527221D01*
X-782957Y1535699D01*
X-785303Y1544018D01*
X-788295Y1552128D01*
X-791914Y1559977D01*
X-796137Y1567519D01*
X-800939Y1574706D01*
X-806291Y1581494D01*
X-812158Y1587842D01*
X-818506Y1593709D01*
X-825294Y1599060D01*
X-832481Y1603863D01*
X-840022Y1608086D01*
X-847872Y1611705D01*
X-855982Y1614697D01*
X-864301Y1617043D01*
X-872779Y1618729D01*
X-881363Y1619745D01*
X-890000Y1620085D01*
D02*
G37*
G36*
Y1366085D02*
X-960000D01*
X-968637Y1365745D01*
X-977221Y1364729D01*
X-985699Y1363043D01*
X-994018Y1360697D01*
X-1002128Y1357705D01*
X-1009977Y1354086D01*
X-1017519Y1349863D01*
X-1024706Y1345060D01*
X-1031494Y1339709D01*
X-1037842Y1333842D01*
X-1043709Y1327494D01*
X-1049060Y1320706D01*
X-1053863Y1313519D01*
X-1058086Y1305977D01*
X-1061705Y1298128D01*
X-1064697Y1290018D01*
X-1067043Y1281699D01*
X-1068729Y1273221D01*
X-1069745Y1264637D01*
X-1070085Y1256000D01*
X-1069745Y1247363D01*
X-1068729Y1238779D01*
X-1067043Y1230301D01*
X-1064697Y1221982D01*
X-1061705Y1213872D01*
X-1058086Y1206023D01*
X-1053863Y1198481D01*
X-1049060Y1191294D01*
X-1043709Y1184506D01*
X-1037842Y1178158D01*
X-1031494Y1172291D01*
X-1024706Y1166940D01*
X-1017519Y1162137D01*
X-1009977Y1157914D01*
X-1002128Y1154295D01*
X-994018Y1151303D01*
X-985699Y1148957D01*
X-977221Y1147271D01*
X-968637Y1146255D01*
X-960000Y1145915D01*
X-890000D01*
X-881363Y1146255D01*
X-872779Y1147271D01*
X-864301Y1148957D01*
X-855982Y1151303D01*
X-847872Y1154295D01*
X-840022Y1157914D01*
X-832481Y1162137D01*
X-825294Y1166940D01*
X-818506Y1172291D01*
X-812158Y1178158D01*
X-806291Y1184506D01*
X-800939Y1191294D01*
X-796137Y1198481D01*
X-791914Y1206023D01*
X-788295Y1213872D01*
X-785303Y1221982D01*
X-782957Y1230301D01*
X-781270Y1238779D01*
X-780254Y1247363D01*
X-779915Y1256000D01*
X-780254Y1264637D01*
X-781270Y1273221D01*
X-782957Y1281699D01*
X-785303Y1290018D01*
X-788295Y1298128D01*
X-791914Y1305977D01*
X-796137Y1313519D01*
X-800939Y1320706D01*
X-806291Y1327494D01*
X-812158Y1333842D01*
X-818506Y1339709D01*
X-825294Y1345060D01*
X-832481Y1349863D01*
X-840022Y1354086D01*
X-847872Y1357705D01*
X-855982Y1360697D01*
X-864301Y1363043D01*
X-872779Y1364729D01*
X-881363Y1365745D01*
X-890000Y1366085D01*
D02*
G37*
G36*
X-937500Y858085D02*
X-960000D01*
X-968637Y857745D01*
X-977221Y856729D01*
X-985699Y855043D01*
X-994018Y852697D01*
X-1002128Y849705D01*
X-1009977Y846086D01*
X-1017519Y841863D01*
X-1024706Y837060D01*
X-1031494Y831709D01*
X-1037842Y825842D01*
X-1043709Y819494D01*
X-1049060Y812706D01*
X-1053863Y805519D01*
X-1058086Y797977D01*
X-1061705Y790128D01*
X-1064697Y782018D01*
X-1067043Y773699D01*
X-1068729Y765221D01*
X-1069288Y760500D01*
X-937500D01*
Y858085D01*
D02*
G37*
G36*
Y735500D02*
X-1069288D01*
X-1068729Y730779D01*
X-1067043Y722301D01*
X-1064697Y713982D01*
X-1061705Y705872D01*
X-1058086Y698023D01*
X-1053863Y690481D01*
X-1049060Y683294D01*
X-1043709Y676506D01*
X-1037842Y670158D01*
X-1031494Y664291D01*
X-1024706Y658940D01*
X-1017519Y654137D01*
X-1009977Y649914D01*
X-1002128Y646295D01*
X-994018Y643303D01*
X-985699Y640957D01*
X-977221Y639271D01*
X-968637Y638255D01*
X-960000Y637915D01*
X-937500D01*
Y735500D01*
D02*
G37*
G36*
X-890000Y604085D02*
X-960000D01*
X-968637Y603745D01*
X-977221Y602729D01*
X-985699Y601043D01*
X-994018Y598697D01*
X-1002128Y595705D01*
X-1009977Y592086D01*
X-1017519Y587863D01*
X-1024706Y583060D01*
X-1031494Y577709D01*
X-1037842Y571842D01*
X-1043709Y565494D01*
X-1049060Y558706D01*
X-1053863Y551519D01*
X-1058086Y543977D01*
X-1061705Y536128D01*
X-1064697Y528018D01*
X-1067043Y519699D01*
X-1068729Y511221D01*
X-1069745Y502637D01*
X-1070085Y494000D01*
X-1069745Y485363D01*
X-1068729Y476779D01*
X-1067043Y468301D01*
X-1064697Y459982D01*
X-1061705Y451872D01*
X-1058086Y444023D01*
X-1053863Y436481D01*
X-1049060Y429294D01*
X-1043709Y422506D01*
X-1037842Y416158D01*
X-1031494Y410291D01*
X-1024706Y404940D01*
X-1017519Y400137D01*
X-1009977Y395914D01*
X-1002128Y392295D01*
X-994018Y389303D01*
X-985699Y386957D01*
X-977221Y385271D01*
X-968637Y384255D01*
X-960000Y383915D01*
X-890000D01*
X-881363Y384255D01*
X-872779Y385271D01*
X-864301Y386957D01*
X-855982Y389303D01*
X-847872Y392295D01*
X-840022Y395914D01*
X-832481Y400137D01*
X-825294Y404940D01*
X-818506Y410291D01*
X-812158Y416158D01*
X-806291Y422506D01*
X-800939Y429294D01*
X-796137Y436481D01*
X-791914Y444023D01*
X-788295Y451872D01*
X-785303Y459982D01*
X-782957Y468301D01*
X-781270Y476779D01*
X-780254Y485363D01*
X-779915Y494000D01*
X-780254Y502637D01*
X-781270Y511221D01*
X-782957Y519699D01*
X-785303Y528018D01*
X-788295Y536128D01*
X-791914Y543977D01*
X-796137Y551519D01*
X-800939Y558706D01*
X-806291Y565494D01*
X-812158Y571842D01*
X-818506Y577709D01*
X-825294Y583060D01*
X-832481Y587863D01*
X-840022Y592086D01*
X-847872Y595705D01*
X-855982Y598697D01*
X-864301Y601043D01*
X-872779Y602729D01*
X-881363Y603745D01*
X-890000Y604085D01*
D02*
G37*
%LPD*%
G36*
G01X801500Y327000D02*
G03X777500Y351000I-24000J0D01*
G01X677500D01*
G01Y409000D01*
G01X777500D01*
G03X801500Y433000I0J24000D01*
G01Y465000D01*
G02X825500Y489000I24000J0D01*
G01X1008455D01*
G03X1032455Y465000I24000J0D01*
G01X1107500D01*
G01Y359000D01*
G01X1107500D01*
G01Y295000D01*
G01X1032455D01*
G03X1008455Y271000I0J-24000D01*
G01X825500D01*
G02X801500Y295000I0J24000D01*
G01Y327000D01*
D02*
G37*
D12*
X35000Y195000D02*
D03*
Y305000D02*
D03*
D13*
X140000Y90000D02*
D03*
X250000D02*
D03*
D24*
X-550000Y1142700D02*
X-531700Y1161000D01*
X-550000Y655000D02*
Y1142700D01*
X-595000Y610000D02*
X-550000Y655000D01*
X-695000Y980000D02*
X-635000D01*
X-715000Y960000D02*
X-695000Y980000D01*
X-715000Y660000D02*
X-645000Y590000D01*
X-715000Y660000D02*
Y960000D01*
X65500Y90000D02*
X140000D01*
X55000Y79500D02*
X65500Y90000D01*
X-645000Y360000D02*
X-555000Y270000D01*
X-645000Y360000D02*
Y590000D01*
X-555000Y185800D02*
Y270000D01*
Y185800D02*
X-481700Y112500D01*
X-471700Y663301D02*
Y907000D01*
X-545000Y590001D02*
X-471700Y663301D01*
X-405000Y255000D02*
X-375000Y225000D01*
X-405000Y255000D02*
Y323300D01*
X-485000Y220000D02*
Y300000D01*
X-395000Y130000D02*
X-365000D01*
X-485000Y220000D02*
X-395000Y130000D01*
X-595000Y410000D02*
X-485000Y300000D01*
X-595000Y410000D02*
Y610000D01*
X-115000Y130000D02*
X-50000Y195000D01*
X-255000Y130000D02*
X-115000D01*
X-50000Y195000D02*
X35000D01*
X-545000Y463300D02*
X-405000Y323300D01*
X-545000Y463300D02*
Y590001D01*
X-695000Y300000D02*
Y570000D01*
Y270000D02*
Y300000D01*
X-765000Y640000D02*
X-695000Y570000D01*
X-765000Y640000D02*
Y1070000D01*
X-565000Y1270000D01*
X-475000D01*
D25*
X35000Y345000D02*
X36000Y346001D01*
Y680000D01*
D26*
X-232500Y1132500D02*
X45000Y1410000D01*
X-317500Y1132500D02*
X-232500D01*
X-365000Y1085000D02*
X-317500Y1132500D01*
X-365000Y530000D02*
Y1085000D01*
X-115000Y1470000D02*
X25000Y1610000D01*
X-375000Y1470000D02*
X-115000D01*
X-325000Y330000D02*
X-225000D01*
X-125000D01*
X-107020Y347980D01*
X727500Y530000D02*
Y612500D01*
X775000Y660000D02*
X945000D01*
X727500Y612500D02*
X775000Y660000D01*
X45000Y1410000D02*
X240000D01*
X945000Y660000D02*
X995000Y710000D01*
Y1520000D01*
X905000Y1610000D02*
X995000Y1520000D01*
X25000Y1610000D02*
X905000D01*
X-107020Y1057980D02*
X35000Y1200000D01*
X580000D02*
X790000Y1410000D01*
X35000Y1200000D02*
X580000D01*
X-107020Y347980D02*
Y1057980D01*
D27*
X240000Y990000D02*
D03*
X790000D02*
D03*
X240000Y1410000D02*
D03*
X790000D02*
D03*
D28*
X-925000Y748000D02*
D03*
Y1510000D02*
D03*
Y1256000D02*
D03*
Y1002000D02*
D03*
Y494000D02*
D03*
D29*
Y240000D02*
D03*
D30*
X1020000Y550000D02*
D03*
X870000D02*
D03*
Y400000D02*
D03*
X1020000D02*
D03*
X-780000Y66000D02*
D03*
X-125000Y1669999D02*
D03*
X-1025000Y1649999D02*
D03*
X-471700Y1061000D02*
D03*
X200000Y360000D02*
D03*
Y480000D02*
D03*
X770000Y66000D02*
D03*
X547500Y770000D02*
D03*
Y660000D02*
D03*
X-625000Y710000D02*
D03*
X55000Y79500D02*
D03*
X-481700Y112500D02*
D03*
X-255000Y170000D02*
D03*
X-475000Y1470000D02*
D03*
X-375000D02*
D03*
X-695000Y300000D02*
D03*
X-475000Y1270000D02*
D03*
X-365000Y130000D02*
D03*
X-375000Y225000D02*
D03*
X-531700Y1161000D02*
D03*
X-471700Y907000D02*
D03*
X36000Y680000D02*
D03*
X-365000Y530000D02*
D03*
X-265000D02*
D03*
X-465000D02*
D03*
X-325000Y330000D02*
D03*
X-125000D02*
D03*
X-225000D02*
D03*
D31*
X-635000Y1620000D02*
D03*
X-255000Y980000D02*
D03*
X-635000D02*
D03*
X-255000Y1620000D02*
D03*
X-635000Y130000D02*
D03*
Y770000D02*
D03*
X-255000D02*
D03*
Y130000D02*
D03*
D32*
X175000Y260000D02*
D03*
Y500000D02*
D03*
X455000Y260000D02*
D03*
Y500000D02*
D03*
D33*
X727500Y230000D02*
D03*
Y530000D02*
D03*
D34*
X605000Y450000D02*
D03*
Y310000D02*
D03*
%TF.MD5,7fec4c2a47254d636ee28016e1bce450*%
M02*
