%TF.GenerationSoftware,Altium Limited,Altium Designer,26.5.1 (12)*%
G04 Layer_Color=0*
G04 Board_Origin=46948819|29015748*
%FSLAX45Y45*%
%MOMM*%
%TF.SameCoordinates,F5B28851-A897-448A-83EB-F940FC8B259D*%
%TF.FilePolarity,Positive*%
%TF.FileFunction,Plated,1,2,PTH,Drill*%
%TF.Part,Single*%
G01*
G75*
%TA.AperFunction,ComponentDrill*%
%ADD59C,1.40000*%
%ADD60C,1.10000*%
%TA.AperFunction,ViaDrill,NotFilled*%
%ADD61C,0.30000*%
D59*
X240000Y990000D02*
D03*
X790000D02*
D03*
X240000Y1410000D02*
D03*
X790000D02*
D03*
D60*
X-925000Y748000D02*
D03*
Y1510000D02*
D03*
Y1256000D02*
D03*
Y1002000D02*
D03*
Y494000D02*
D03*
Y240000D02*
D03*
D61*
X1020000Y550000D02*
D03*
X870000D02*
D03*
Y400000D02*
D03*
X1020000D02*
D03*
X-780000Y66000D02*
D03*
X-125000Y1669999D02*
D03*
X-1025000Y1649999D02*
D03*
X-471700Y1061000D02*
D03*
X200000Y360000D02*
D03*
Y480000D02*
D03*
X770000Y66000D02*
D03*
X547500Y770000D02*
D03*
Y660000D02*
D03*
X-625000Y710000D02*
D03*
X55000Y79500D02*
D03*
X-481700Y112500D02*
D03*
X-255000Y170000D02*
D03*
X-475000Y1470000D02*
D03*
X-375000D02*
D03*
X-695000Y300000D02*
D03*
X-475000Y1270000D02*
D03*
X-365000Y130000D02*
D03*
X-375000Y225000D02*
D03*
X-531700Y1161000D02*
D03*
X-471700Y907000D02*
D03*
X36000Y680000D02*
D03*
X-365000Y530000D02*
D03*
X-265000D02*
D03*
X-465000D02*
D03*
X-325000Y330000D02*
D03*
X-125000D02*
D03*
X-225000D02*
D03*
%TF.MD5,3067d1bcb3033b4076d30df4f4706279*%
M02*
