%TF.GenerationSoftware,Altium Limited,Altium Designer,26.5.1 (12)*%
G04 Layer_Color=32896*
G04 Board_Origin=46948819|29015748*
%FSLAX45Y45*%
%MOMM*%
%TF.SameCoordinates,F5B28851-A897-448A-83EB-F940FC8B259D*%
%TF.FilePolarity,Positive*%
%TF.FileFunction,Legend,Bot*%
%TF.Part,Single*%
G01*
G75*
%TA.AperFunction,NonConductor*%
%ADD35C,0.30000*%
%ADD37C,0.20000*%
%ADD38C,0.25000*%
D35*
X1005000Y1100000D02*
Y1300000D01*
Y1700000D01*
Y700000D02*
Y1100000D01*
X25000Y1700000D02*
X1005000D01*
X25000Y700000D02*
Y1700000D01*
Y700000D02*
X1005000D01*
Y1100000D02*
X1090000D01*
Y1300000D01*
X1005000D02*
X1090000D01*
D37*
X615000Y510000D02*
G03*
X615000Y510000I-10000J0D01*
G01*
X-220000Y1100000D02*
Y1500000D01*
X-670000D02*
X-220000D01*
X-670000Y1100000D02*
Y1500000D01*
Y1100000D02*
X-220000D01*
X-670000Y650000D02*
X-220000D01*
Y250000D02*
Y650000D01*
X-670000Y250000D02*
X-220000D01*
X-670000D02*
Y650000D01*
X775000Y150000D02*
X1035000D01*
Y255000D01*
X775000Y610000D02*
X1035000D01*
Y505000D02*
Y610000D01*
X647500Y360000D02*
Y400000D01*
X562500Y360000D02*
Y400000D01*
X280000Y340000D02*
X350000D01*
X280000Y180000D02*
X350000D01*
X280000Y580000D02*
X350000D01*
X280000Y420000D02*
X350000D01*
D38*
X727500Y160000D02*
G03*
X727500Y160000I-12500J0D01*
G01*
%TF.MD5,2c7b1c70482213845f63c7c15e41c798*%
M02*
